<svg 
width="27" 
height="25
" viewBox="0 0 27 25" 
fill="none" 
xmlns="http://www.w3.org/2000/svg">
<path 
d="M0.541992 1.98682C0.541992 1.41876 1.04091 0.958252 1.65635 0.958252H2.48582C3.89804 0.958252 4.7436 1.83458 5.22713 2.64921C5.54942 3.19223 5.78257 3.82204 5.96494 4.39224C6.01433 4.38866 6.06437 4.38682 6.11497 4.38682H24.6836C25.9171 4.38682 26.8079 5.47631 26.4697 6.57124L23.7539 15.3609C23.2535 16.9809 21.6497 18.0981 19.8247 18.0981H10.9869C9.14674 18.0981 7.53363 16.9627 7.04662 15.3248L5.91668 11.5244L4.04664 5.69761L4.0436 5.6874C3.81226 4.90867 3.59514 4.18118 3.27251 3.63761C2.9592 3.10975 2.70945 3.01539 2.48582 3.01539H1.65635C1.04091 3.01539 0.541992 2.55488 0.541992 1.98682ZM10.1998 24.9583C11.841 24.9583 13.1714 23.7303 13.1714 22.2154C13.1714 20.7005 11.841 19.4725 10.1998 19.4725C8.55858 19.4725 7.22814 20.7005 7.22814 22.2154C7.22814 23.7303 8.55858 24.9583 10.1998 24.9583ZM20.6004 24.9583C22.2417 24.9583 23.5721 23.7303 23.5721 22.2154C23.5721 20.7005 22.2417 19.4725 20.6004 19.4725C18.9592 19.4725 17.6288 20.7005 17.6288 22.2154C17.6288 23.7303 18.9592 24.9583 20.6004 24.9583Z" fill="#212121"/>
</svg>
