<svg width="24" height="29" viewBox="0 0 24 29"
 fill="none"
  xmlns="http://www.w3.org/2000/svg">
<path d="M2.33966 24.6746L2.33965 24.6746C1.58517 23.8141 1.17236 22.7217 1.17236 21.5943V20.7856C1.17236 19.3348 2.38342 18.1365 3.90522 18.1365H20.4395C21.9614 18.1365 23.1724 19.3348 23.1724 20.7856V21.5913C23.1724 22.7205 22.7582 23.8145 22.0014 24.6757C19.8702 27.101 16.5981 28.3401 12.1677 28.3401C7.7364 28.3401 4.46629 27.1005 2.33966 24.6746ZM20.4395 19.2369H3.90522C3.04697 19.2369 2.32868 19.918 2.32868 20.7856V21.5943C2.32868 22.4672 2.64847 23.3095 3.22748 23.9699C5.15791 26.1719 8.14792 27.2397 12.1677 27.2397C16.1875 27.2397 19.1796 26.1718 21.1144 23.97C21.6953 23.309 22.016 22.4655 22.016 21.5913V20.7856C22.016 19.918 21.2977 19.2369 20.4395 19.2369ZM12.1677 1.34009C15.8737 1.34009 18.8554 4.26311 18.8554 7.84134C18.8554 11.4196 15.8736 14.3426 12.1677 14.3426C8.46163 14.3426 5.4799 11.4196 5.4799 7.84134C5.4799 4.26311 8.46163 1.34009 12.1677 1.34009ZM12.1677 2.44046C9.12524 2.44046 6.63621 4.84621 6.63621 7.84134C6.63621 10.8365 9.12524 13.2422 12.1677 13.2422C15.2101 13.2422 17.6991 10.8365 17.6991 7.84134C17.6991 4.84622 15.2101 2.44046 12.1677 2.44046Z" 
fill="#212121"
 stroke="black"/>
</svg>
